<svg xmlns="http://www.w3.org/2000/svg" width="133.364" height="130.756" viewBox="0 0 133.364 130.756"><path fill="none" stroke="#FFF" stroke-width="2" stroke-miterlimit="10" d="M9.365 65.5c0-32.032 25.97-58 58-58 32.032 0 58 25.968 58 58s-25.968 58-58 58c-28.465 0-52.142-20.507-57.062-47.552-.616-3.39-.938-6.88-.938-10.448z"/><g fill="none" stroke="#FFF" stroke-width="2" stroke-linecap="round" stroke-linejoin="round" stroke-miterlimit="10"><path d="M106.643 23.058l-4.53-.59-.535 5.613s4.277 1.605 5.078 4.277c.803 2.673 1.604 6.147 1.604 6.147l-2.672 3.207 2.672 5.347-1.87 2.405s-1.872-5.078-2.94-5.346c-1.068-.267-2.14-2.138-2.14-2.138l-3.206 1.336 1.336 1.87 2.674 1.07-.535 1.07c-.535 1.067 1.067 3.474 2.138 7.482 1.068 4.01-4.01 6.682-5.88 6.682-1.872 0-4.277 1.338-4.813 3.207-.534 1.87 2.407 2.94 3.476 5.346 1.07 2.407-2.94 3.744-2.94 3.744l-4.543-5.08s.268 1.07 0 3.21 1.07 4.008 3.21 4.81c2.136.802 1.87 4.01 1.87 4.01l-.803 2.138s0 2.673 2.404 4.276c2.406 1.604 6.684 2.673 6.684 2.673s-5.347-.8-7.484-.8c-2.14 0-3.475-1.604-5.88-4.01-2.405-2.405-5.613-6.682-5.613-6.682s2.672.267 3.475 1.07c.802.8 3.208 1.87 3.208 1.87s-2.406-5.347-2.406-7.218-1.87-7.217-1.87-7.217l-3.476 3.475s.802-1.604.802-3.742c0-2.137-2.406-4.543-2.406-4.543s-2.404 1.07-4.01 2.14c-1.603 1.067-5.344 4.275-5.612 6.68-.267 2.407-2.405 5.08-2.405 5.08s-3.475-7.484-6.682-12.03c-3.207-4.542-6.146-4.008-9.354-4.008-3.21 0-7.22-2.404-8.822-3.742-1.604-1.336-3.207-.533-3.207-.533l3.208 4.81s3.742-.267 5.88.536c2.14.8.803 2.404-1.07 5.077-1.87 2.673-5.88 4.01-8.284 4.545-2.406.534-2.138-2.407-2.138-2.407L29.68 56.68l4.544 10.425 5.076 5.88 6.148-1.337s-1.604 4.812-3.74 7.216c-2.14 2.406-6.416 6.683-6.416 6.683s.802 2.405.802 5.078.267 5.346.267 5.346l-2.136.536s0 1.337-.268 3.207c-.27 1.87-2.94 5.88-2.94 5.88s-2.674-1.604-6.683-6.147c-4.01-4.543-4.276-11.493-5.613-16.036-1.337-4.545-1.284-5.223-4.276-7.217-1.604-1.07-4.14-.243-4.14-.243M10.49 55.168s2.985-2.865 4.153-3.365c1.87-.803 3.51-.903 3.51-.903l-1.32 2.623 5.087 2.915.538-2.953 6.684.528s2.14-1.34 2.674-2.408c.535-1.068.27-2.94.27-2.94l-4.01 1.334-2.673-.698L25.67 47h-2.674l1.07 3.237-1.872 1.35-1.38-5.472-2.45-2.265v6.147l-1.293-1.604-.91-4.01-1.127 3.208-1.764 2.407-1.77.687 2.34-4.696.574-3.755 3.607-4.264 4.092-1.337 2.18-2.14 1.624-4.81 3.752-1.87M28.877 24.874l-2.94 4.81M31.148 20.543l4.88.654-2.107 2.908 4.562-6.165 4.285.26 2.41-2.143-4.542-.805 5.348-3.21 2.138 3.21 3.21 1.278-.536-3.53H54s1.07.992 1.07 1.795 2.405-2.445 2.405-2.445l-1.603-1.757s1.87-1.68 2.672-1.68c.803 0 2.17-.67 2.17-.67"/><path d="M43.71 93.678L41.44 97h-2.405l.535 3.63 1.87 3.816 2.407-.173zM106.644 107.995s1.08-3.205-.522-2.938c-1.604.268-4.544 1.87-6.95 2.94-2.404 1.068-5.077.802-5.077.802s1.068-1.34 1.337-3.476c.266-2.14 0-5.347 2.404-6.415 2.406-1.07 4.277 0 5.613-1.605 1.335-1.603 3.206-4.81 3.206-4.81l4.01-1.872 2.94-.268-1.07 3.742s1.872.535 2.674-1.87c.802-2.406.802-3.207.802-3.207l1.416 5.546M104.65 27.546s4.61 6.148 6.215 9.355 2.17 7.752 2.17 7.752l-.33 5.078-4.34 2.406v-3.208l3.956-3.742M33.198 38.795s-2.39.956-2.23 1.194c.16.238.48 2.39.48 2.39l-2.71-2.23s-2.39 4.698-1.115 5.097c1.275.397 2.787-1.593 3.903-1.035 1.114.557 3.424.796 3.504-.48.08-1.273-1.674-1.352-1.992-2.467s.16-2.47.16-2.47zM43.073 37.52l-3.664 2.947 2.627 4.3-.478 2.15s2.706 1.354 3.343 1.115c.638-.238.638-1.593-.318-3.664-.955-2.07-2.867-3.025-2.39-4.14.48-1.114.878-2.707.878-2.707zM71.582 74.79s-1.673 1.036-.717 2.312c.956 1.273 1.99 1.193 1.832-.16-.16-1.354-1.115-2.15-1.115-2.15zM96.587 64.28c-.557.397-.477 1.83.24 1.353.717-.478-.24-1.353-.24-1.353zM104.232 60.14c0 1.113 1.434 3.264 1.194 1.193-.238-2.07-1.194-1.194-1.194-1.194zM104.71 66.908c-.158 1.353 0 4.14 1.275 4.38 1.272.238 2.23.795 1.672 1.672-.557.876-2.63 1.91-1.672 2.708.955.795 2.468 3.265 2.945 1.035.48-2.23.957-6.133-1.035-6.85-1.99-.718-1.99-2.39-2.39-3.504-.397-1.116-.794.558-.794.558zM101.685 76.94l-3.822 4.62-1.752-.797s.558 6.212 3.187 5.097c2.628-1.113 3.424-3.902 3.583-5.415s-.16-1.83.398-2.39c.558-.558-.16-2.07-.797-1.83s-.32 0-.795.716zM113.47 83.392s2.07-1.832 3.266-1.194c1.195.638 1.752 1.593 1.752 1.593l2.23-1.193s-2.39 2.47-2.31 3.344c.08.877-.478.24-1.753.56-1.273.317-1.592-1.276-2.627-1.674-1.036-.396-2.15-.716-2.23-1.83-.08-1.115 1.115-1.992 1.435-1.194.317.794.237 1.59.237 1.59zM108.135 87.613s-1.274 1.408-1.673 1.408c-.397 0-.796 1.3-.796 1.3M108.294 80.685s-.717.956-1.91 1.035c-1.195.08-.957 0-1.673 1.434-.716 1.434-.954 3.662-.954 3.662l2.706-.317s-.875-1.594-.716-2.788c.16-1.195-.16-2.23-.16-2.23"/></g></svg>