<svg xmlns="http://www.w3.org/2000/svg" width="147.908" height="127.273" viewBox="0 0 147.908 127.273"><path fill="none" stroke="#FFF" stroke-width="3" stroke-miterlimit="10" d="M83.547 59.73V47.74l-7.62-1.78c-.877-3.855-2.387-7.47-4.42-10.725l4.114-6.627-8.475-8.477-6.573 4.084c-3.275-2.084-6.92-3.637-10.814-4.54l-1.745-7.468H36.025L34.3 19.58c-3.97.873-7.688 2.418-11.027 4.514l-6.38-3.963-8.478 8.476 3.93 6.326c-2.146 3.36-3.733 7.107-4.633 11.117L.49 47.74v11.99l7.223 1.687c.9 4.01 2.486 7.76 4.633 11.117l-3.93 6.327 8.476 8.48 6.382-3.965c3.34 2.096 7.057 3.64 11.027 4.513l1.725 7.376h11.99l1.744-7.47c3.894-.902 7.538-2.454 10.813-4.538l6.572 4.082 8.478-8.476-4.117-6.627c2.034-3.256 3.544-6.87 4.42-10.726l7.62-1.78z"/><circle fill="none" stroke="#FFF" stroke-width="3" stroke-miterlimit="10" cx="41.816" cy="53.735" r="26.607"/><circle fill="none" stroke="#FFF" stroke-width="3" stroke-miterlimit="10" cx="41.816" cy="53.735" r="20.896"/><circle fill="none" stroke="#FFF" stroke-width="3" stroke-miterlimit="10" cx="41.816" cy="53.735" r="7"/><path fill="none" stroke="#FFF" stroke-width="3" stroke-miterlimit="10" d="M127.086 77.367l4.134-2.798-2.73-7.143-4.947.675c-1.4-2.098-3.123-3.906-5.076-5.383l.942-4.89-6.982-3.118-2.986 3.93c-2.427-.494-4.95-.59-7.48-.24l-2.74-4.053-7.144 2.73.653 4.79c-2.166 1.423-4.028 3.19-5.54 5.2l-4.706-.908-3.12 6.98 3.783 2.876c-.514 2.49-.605 5.085-.228 7.68L79 86.35l2.73 7.146 4.69-.642c1.448 2.185 3.247 4.056 5.29 5.568l-.898 4.667 6.982 3.117 2.9-3.815c2.467.487 5.033.562 7.598.176L111 106.57l7.145-2.73-.66-4.85c2.114-1.426 3.932-3.18 5.408-5.17l4.847.935 3.12-6.98-3.963-3.01c.47-2.403.546-4.9.19-7.398z"/><path fill="none" stroke="#FFF" stroke-width="3" stroke-miterlimit="10" d="M101.398 70.6c-5.066 1.94-7.607 7.62-5.668 12.688 1.935 5.067 7.62 7.607 12.685 5.666 5.072-1.935 7.608-7.62 5.666-12.686-1.936-5.068-7.613-7.61-12.682-5.668z"/></svg>