<svg xmlns="http://www.w3.org/2000/svg" width="130.908" height="127.273" viewBox="0 0 130.908 127.273"><path fill="none" stroke="#FFF" stroke-width="3" stroke-miterlimit="10" d="M106.28 105.162c0 3.977-3.224 7.2-7.2 7.2h-63.6c-3.976 0-7.2-3.224-7.2-7.2v-86.6c0-3.977 3.225-7.2 7.2-7.2h63.6c3.977 0 7.2 3.224 7.2 7.2v86.6zM43.67 77.252h48.238M43.67 85.752h48.238M43.67 94.252h48.238M43.67 30.604h48.238M43.67 39.104h31.905"/><path fill="none" stroke="#FFF" stroke-width="3" stroke-miterlimit="10" d="M45 49.63h45.237v17H45z"/><g fill="#FFF"><path d="M93 32.727l-10 8.5V12h10"/><path d="M87 32.727l10 8.5V12H87"/></g></svg>