<svg id="Layer_1" xmlns="http://www.w3.org/2000/svg" viewBox="0 0 210 210"><style>.st0{fill:none;stroke:#FFFFFF;stroke-width:2.549;}</style><path class="st0" d="M61.9 112c0 3.8-3.3 6.5-5.9 4.5v-21 50.2c0 2.9-2.4 5.2-5.4 5.2s-5.4-2.3-5.4-5.2v-29.2h-3.1v29.2c0 2.9-2.4 5.2-5.4 5.2s-5.4-2.3-5.4-5.2V95.5v21c-2.2 1.4-5.9.1-5.9-4.5V86.3c0-2.8 1.3-4.1 4-4.1h27c3.6 0 5.4.5 5.4 4.1l.1 25.7zM43.6 78.4c-5.2 0-9.5-4.1-9.5-9.2s4.2-9.2 9.5-9.2c5.2 0 9.5 4.1 9.5 9.2 0 5-4.2 9.2-9.5 9.2zM128.9 113.7c0 4.8-4.2 8.2-7.4 5.6V93.1v62.7c0 3.7-3 6.6-6.7 6.6s-6.7-2.9-6.7-6.6v-36.5h-3.8v36.5c0 3.7-3 6.6-6.7 6.6s-6.7-2.9-6.7-6.6V93.1 119.3c-2.7 1.8-7.4.2-7.4-5.6V81.5c0-3.5 1.6-5.1 5-5.1h33.7c4.5 0 6.7.6 6.7 5.1v32.2zM106 71.6c-6.6 0-11.8-5.1-11.8-11.5s5.3-11.5 11.8-11.5c6.6 0 11.8 5.1 11.8 11.5 0 6.3-5.2 11.5-11.8 11.5zM186.7 112c0 3.8-3.3 6.5-5.9 4.5v-21 50.2c0 2.9-2.4 5.2-5.4 5.2-2.9 0-5.4-2.3-5.4-5.2v-29.2h-3v29.2c0 2.9-2.4 5.2-5.4 5.2s-5.4-2.3-5.4-5.2V95.5v21c-2.2 1.4-5.9.1-5.9-4.5V86.3c0-2.8 1.3-4.1 4-4.1h27c3.6 0 5.4.5 5.4 4.1V112zm-18.1-33.6c-5.2 0-9.5-4.1-9.5-9.2s4.2-9.2 9.5-9.2 9.5 4.1 9.5 9.2c-.1 5-4.3 9.2-9.5 9.2z"/></svg>