<svg xmlns="http://www.w3.org/2000/svg" width="130.908" height="127.273" viewBox="0 0 130.908 127.273"><g fill="none" stroke="#FFF" stroke-width="3" stroke-miterlimit="10"><path d="M81.542 36.334c0-7.732-6.128-14-13.688-14s-13.688 6.268-13.688 14c0 3.94 2.533 10.13 5.534 14.007 4.68 6.045 8.153 10.363 8.153 10.363s3.707-4.682 7.343-9.453c3.598-4.72 6.346-11.047 6.346-14.916z"/><ellipse cx="67.854" cy="36.236" rx="6.97" ry="7.129"/></g><g fill="none" stroke="#FFF" stroke-width="3" stroke-miterlimit="10"><path d="M52.33 73.408c0-7.732-6.13-14-13.688-14-7.56 0-13.688 6.268-13.688 14 0 3.94 2.533 10.132 5.534 14.008 4.68 6.043 8.153 10.36 8.153 10.36s3.708-4.68 7.343-9.452c3.6-4.72 6.347-11.047 6.347-14.916z"/><ellipse cx="38.642" cy="73.312" rx="6.97" ry="7.129"/></g><g fill="none" stroke="#FFF" stroke-width="3" stroke-miterlimit="10"><path d="M110.754 73.408c0-7.732-6.128-14-13.688-14s-13.688 6.268-13.688 14c0 3.94 2.533 10.132 5.535 14.008 4.68 6.043 8.152 10.36 8.152 10.36s3.707-4.68 7.343-9.452c3.598-4.72 6.346-11.047 6.346-14.916z"/><ellipse cx="97.066" cy="73.312" rx="6.97" ry="7.129"/></g><path fill="none" stroke="#FFF" stroke-width="3" stroke-miterlimit="10" d="M39.404 96.847l28.33-36.126L96.89 97.423"/></svg>